# xmcd CD database file
#
# Track frame offsets:
#	150
#	11420
#	25198
#	39930
#	53158
#	65517
#	82043
#	93992
#	105722
#	120576
#
# Disc length: 1765 seconds
#
# Revision: 0
# Processed by: cddbd v1.5.2PL0 Copyright (c) Steve Scherf et al.
# Submitted via: CDex 1.70beta2
#
DISCID=7406e30a
DTITLE=Kelli Grant - Swing Like That
DYEAR=2007
DGENRE=Country
TTITLE0=Time Changes Everything
TTITLE1=Who's Sorry Now
TTITLE2=Sugar Moon
TTITLE3=Have You Ever Been Lonely
TTITLE4=San Antonio Rose
TTITLE5=All of Me
TTITLE6=Right or Wrong
TTITLE7=Honky Tonk Hardwood Floor
TTITLE8=Release Me
TTITLE9=Four, Five Times
EXTD=YEAR: 2007
EXTT0=
EXTT1=
EXTT2=
EXTT3=
EXTT4=
EXTT5=
EXTT6=
EXTT7=
EXTT8=
EXTT9=
PLAYORDER=
